<svg xmlns="http://www.w3.org/2000/svg" xmlns:xlink="http://www.w3.org/1999/xlink" width="500" zoomAndPan="magnify" viewBox="0 0 375 374.999991" height="500" preserveAspectRatio="xMidYMid meet" version="1.0"><defs><clipPath id="3348505edb"><path d="M 47.441406 180 L 327.558594 180 L 327.558594 339.351562 L 47.441406 339.351562 Z M 47.441406 180 " clip-rule="nonzero"/></clipPath><clipPath id="0012f83a92"><path d="M 37.601562 35.601562 L 337.390625 35.601562 L 337.390625 214 L 37.601562 214 Z M 37.601562 35.601562 " clip-rule="nonzero"/></clipPath></defs><rect x="-37.5" width="450" fill="#ffffff" y="-37.499999" height="449.999989" fill-opacity="1"/><rect x="-37.5" width="450" fill="#000000" y="-37.499999" height="449.999989" fill-opacity="1"/><g clip-path="url(#3348505edb)"><path fill="#ffffff" d="M 326.816406 209.855469 L 273.921875 180.191406 C 274.109375 183.230469 273.671875 186.691406 272.523438 190.203125 C 269.511719 199.417969 262.765625 205.492188 257.421875 203.824219 C 257.402344 222.757812 250.4375 241.054688 237.742188 255.105469 C 230.902344 262.679688 222.621094 270.515625 213.476562 276.492188 C 197.683594 286.800781 177.304688 286.800781 161.515625 276.492188 C 152.367188 270.515625 144.089844 262.679688 137.246094 255.105469 C 124.554688 241.054688 117.585938 222.761719 117.570312 203.824219 C 112.222656 205.492188 105.480469 199.417969 102.46875 190.203125 C 101.320312 186.691406 100.882812 183.230469 101.070312 180.191406 L 48.171875 209.855469 C 47.820312 210.058594 47.597656 210.417969 47.585938 210.824219 C 47.570312 211.230469 47.765625 211.605469 48.105469 211.828125 L 97.179688 243.976562 C 97.617188 244.261719 97.886719 244.726562 97.917969 245.246094 C 97.953125 245.769531 97.742188 246.261719 97.34375 246.601562 L 76.136719 264.667969 C 75.8125 264.941406 75.667969 265.355469 75.75 265.769531 C 75.832031 266.183594 76.117188 266.507812 76.515625 266.640625 C 82.945312 268.773438 105.738281 276.695312 129.273438 289.148438 C 159.269531 305.03125 178.652344 321.792969 186.875 338.976562 C 186.988281 339.214844 187.226562 339.363281 187.496094 339.363281 C 187.765625 339.363281 188 339.214844 188.113281 338.972656 C 196.339844 321.792969 215.71875 305.03125 245.71875 289.148438 C 269.25 276.695312 292.046875 268.773438 298.472656 266.640625 C 298.875 266.507812 299.164062 266.183594 299.242188 265.769531 C 299.324219 265.355469 299.175781 264.941406 298.855469 264.667969 L 277.644531 246.601562 C 277.246094 246.261719 277.039062 245.769531 277.070312 245.246094 C 277.105469 244.726562 277.371094 244.261719 277.8125 243.976562 L 326.882812 211.828125 C 327.222656 211.605469 327.417969 211.230469 327.40625 210.824219 C 327.390625 210.417969 327.171875 210.058594 326.816406 209.855469 " fill-opacity="1" fill-rule="nonzero"/></g><g clip-path="url(#0012f83a92)"><path fill="#ffffff" d="M 117.171875 100.695312 C 117.664062 98.457031 118.234375 96.148438 118.878906 93.765625 C 119.429688 91.726562 120.03125 89.640625 120.6875 87.5 C 125.472656 71.9375 132.113281 57.03125 136.84375 47.265625 C 138.347656 44.164062 141.550781 42.15625 145.003906 42.15625 C 146.101562 42.15625 147.179688 42.359375 148.214844 42.75 L 169.480469 50.785156 C 175.257812 52.96875 181.320312 54.078125 187.496094 54.078125 C 193.671875 54.078125 199.730469 52.96875 205.507812 50.785156 L 226.777344 42.75 C 227.808594 42.359375 228.886719 42.160156 229.980469 42.160156 C 233.4375 42.160156 236.648438 44.171875 238.15625 47.289062 C 242.898438 57.074219 249.550781 72.015625 254.332031 87.601562 C 254.980469 89.707031 255.570312 91.761719 256.113281 93.765625 C 256.753906 96.148438 257.324219 98.457031 257.816406 100.695312 C 260.464844 112.671875 260.992188 122.570312 259.371094 130.222656 C 258.472656 134.464844 256.328125 138.304688 253.167969 141.328125 C 250.015625 144.351562 246.066406 146.347656 241.753906 147.109375 L 241.648438 147.128906 C 223.820312 150.25 205.597656 151.835938 187.496094 151.835938 C 169.390625 151.835938 151.171875 150.25 133.34375 147.128906 L 133.234375 147.109375 C 128.90625 146.347656 124.949219 144.332031 121.785156 141.285156 C 118.625 138.242188 116.480469 134.371094 115.59375 130.101562 C 114.007812 122.460938 114.539062 112.605469 117.171875 100.695312 Z M 321.253906 152.113281 C 314.347656 157.390625 303.886719 162.386719 290.992188 166.558594 C 284.761719 168.574219 278.050781 170.382812 270.957031 171.976562 C 268.179688 172.605469 265.34375 173.199219 262.453125 173.757812 C 261.074219 174.023438 259.675781 174.277344 258.273438 174.53125 C 257.988281 174.578125 257.707031 174.628906 257.421875 174.679688 C 253.816406 175.3125 250.132812 175.898438 246.378906 176.429688 C 229.71875 178.792969 211.679688 180.128906 193.015625 180.347656 C 191.179688 180.371094 189.34375 180.386719 187.496094 180.386719 C 185.648438 180.386719 183.808594 180.371094 181.976562 180.347656 C 163.308594 180.128906 145.273438 178.792969 128.613281 176.429688 C 124.859375 175.898438 121.175781 175.3125 117.570312 174.679688 C 117.285156 174.628906 117.003906 174.578125 116.71875 174.53125 C 115.3125 174.277344 113.917969 174.023438 112.539062 173.757812 C 109.644531 173.199219 106.8125 172.605469 104.035156 171.976562 C 96.9375 170.382812 90.230469 168.574219 83.996094 166.558594 C 71.105469 162.386719 60.640625 157.390625 53.738281 152.113281 C 47.382812 147.25 44.160156 142.386719 44.160156 137.65625 C 44.160156 132.921875 47.382812 128.058594 53.738281 123.199219 C 60.640625 117.917969 71.109375 112.921875 83.996094 108.753906 C 92.011719 106.160156 100.800781 103.90625 110.203125 102.015625 C 107.878906 113.667969 107.527344 123.527344 109.171875 131.433594 C 110.328125 137.003906 113.121094 142.042969 117.234375 146.007812 C 121.339844 149.964844 126.480469 152.578125 132.09375 153.566406 L 132.210938 153.585938 C 150.414062 156.777344 169.015625 158.394531 187.496094 158.394531 C 205.976562 158.394531 224.578125 156.777344 242.78125 153.585938 L 242.894531 153.570312 C 248.488281 152.582031 253.609375 149.988281 257.707031 146.066406 C 261.820312 142.125 264.613281 137.117188 265.789062 131.582031 C 267.464844 123.644531 267.128906 113.742188 264.789062 102.015625 C 274.191406 103.90625 282.980469 106.160156 290.992188 108.753906 C 303.886719 112.921875 314.347656 117.917969 321.253906 123.199219 C 327.605469 128.058594 330.828125 132.921875 330.828125 137.65625 C 330.828125 142.386719 327.605469 147.25 321.253906 152.113281 Z M 293.011719 102.515625 C 284.007812 99.601562 274.035156 97.097656 263.214844 95.035156 C 262.460938 92.019531 261.59375 88.902344 260.605469 85.679688 C 255.703125 69.691406 248.902344 54.421875 244.058594 44.429688 C 242.757812 41.742188 240.734375 39.5 238.203125 37.9375 C 235.722656 36.410156 232.882812 35.601562 229.980469 35.601562 C 228.09375 35.601562 226.234375 35.941406 224.457031 36.617188 L 203.191406 44.652344 C 198.15625 46.554688 192.875 47.519531 187.496094 47.519531 C 182.113281 47.519531 176.835938 46.554688 171.800781 44.652344 L 150.535156 36.617188 C 148.757812 35.941406 146.898438 35.601562 145.003906 35.601562 C 142.105469 35.601562 139.265625 36.40625 136.792969 37.929688 C 134.261719 39.488281 132.242188 41.726562 130.941406 44.40625 C 126.113281 54.378906 119.324219 69.617188 114.417969 85.574219 C 113.417969 88.835938 112.539062 91.988281 111.773438 95.035156 C 100.957031 97.097656 90.984375 99.601562 81.976562 102.515625 C 53.363281 111.769531 37.601562 124.25 37.601562 137.65625 C 37.601562 151.058594 53.363281 163.539062 81.976562 172.796875 C 88 174.746094 94.457031 176.507812 101.308594 178.082031 C 102.140625 178.269531 102.980469 178.457031 103.824219 178.644531 C 110.246094 180.054688 117.003906 181.296875 124.066406 182.371094 C 123.695312 183.496094 123.488281 184.6875 123.488281 185.933594 L 123.488281 191.488281 C 123.488281 197.441406 125.824219 203.054688 130.0625 207.292969 C 134.300781 211.53125 139.917969 213.867188 145.871094 213.867188 L 161.007812 213.867188 C 166.980469 213.867188 172.605469 211.523438 176.859375 207.277344 C 181.109375 203.027344 183.449219 197.398438 183.449219 191.429688 L 183.449219 186.910156 C 184.796875 186.921875 186.140625 186.945312 187.496094 186.945312 C 188.851562 186.945312 190.191406 186.921875 191.542969 186.910156 L 191.542969 191.429688 C 191.542969 197.398438 193.882812 203.027344 198.132812 207.277344 C 202.382812 211.523438 208.011719 213.867188 213.980469 213.867188 L 229.121094 213.867188 C 235.074219 213.867188 240.6875 211.53125 244.929688 207.292969 C 249.167969 203.054688 251.5 197.441406 251.5 191.488281 L 251.5 185.933594 C 251.5 184.6875 251.292969 183.496094 250.921875 182.371094 C 257.984375 181.296875 264.746094 180.054688 271.167969 178.644531 C 272.011719 178.457031 272.851562 178.269531 273.683594 178.082031 C 280.535156 176.507812 286.988281 174.746094 293.011719 172.796875 C 321.628906 163.539062 337.386719 151.058594 337.386719 137.65625 C 337.386719 124.25 321.628906 111.769531 293.011719 102.515625 " fill-opacity="1" fill-rule="nonzero"/></g></svg>