<svg xmlns="http://www.w3.org/2000/svg" xmlns:xlink="http://www.w3.org/1999/xlink" width="500" zoomAndPan="magnify" viewBox="0 0 375 374.999991" height="500" preserveAspectRatio="xMidYMid meet" version="1.0"><defs><filter x="0%" y="0%" width="100%" height="100%" id="e2c31c5878"><feColorMatrix values="0 0 0 0 1 0 0 0 0 1 0 0 0 0 1 0 0 0 1 0" color-interpolation-filters="sRGB"/></filter><mask id="df15114110"><g filter="url(#e2c31c5878)"><rect x="-37.5" width="450" fill="#000000" y="-37.499999" height="449.999989" fill-opacity="0.098"/></g></mask><clipPath id="cbc2fd5898"><path d="M 10.441406 145 L 290.558594 145 L 290.558594 304.351562 L 10.441406 304.351562 Z M 10.441406 145 " clip-rule="nonzero"/></clipPath><clipPath id="b9f0feeacf"><path d="M 0.601562 0.601562 L 300.390625 0.601562 L 300.390625 179 L 0.601562 179 Z M 0.601562 0.601562 " clip-rule="nonzero"/></clipPath><clipPath id="944df5bb4d"><rect x="0" width="301" y="0" height="306"/></clipPath></defs><g mask="url(#df15114110)"><g transform="matrix(1, 0, 0, 1, 37, 35)"><g clip-path="url(#944df5bb4d)"><g clip-path="url(#cbc2fd5898)"><path fill="#ffffff" d="M 289.816406 174.855469 L 236.921875 145.191406 C 237.109375 148.230469 236.671875 151.691406 235.523438 155.203125 C 232.511719 164.417969 225.765625 170.492188 220.421875 168.824219 C 220.402344 187.757812 213.4375 206.054688 200.742188 220.105469 C 193.902344 227.679688 185.621094 235.515625 176.476562 241.492188 C 160.683594 251.800781 140.304688 251.800781 124.515625 241.492188 C 115.367188 235.515625 107.089844 227.679688 100.246094 220.105469 C 87.554688 206.054688 80.585938 187.761719 80.570312 168.824219 C 75.222656 170.492188 68.480469 164.417969 65.46875 155.203125 C 64.320312 151.691406 63.882812 148.230469 64.070312 145.191406 L 11.171875 174.855469 C 10.820312 175.058594 10.597656 175.417969 10.585938 175.824219 C 10.570312 176.230469 10.765625 176.605469 11.105469 176.828125 L 60.179688 208.976562 C 60.617188 209.261719 60.886719 209.726562 60.917969 210.246094 C 60.953125 210.769531 60.742188 211.261719 60.34375 211.601562 L 39.136719 229.667969 C 38.8125 229.941406 38.667969 230.355469 38.75 230.769531 C 38.832031 231.183594 39.117188 231.507812 39.515625 231.640625 C 45.945312 233.773438 68.738281 241.695312 92.273438 254.148438 C 122.269531 270.03125 141.652344 286.792969 149.875 303.976562 C 149.988281 304.214844 150.226562 304.363281 150.496094 304.363281 C 150.765625 304.363281 151 304.214844 151.113281 303.972656 C 159.339844 286.792969 178.71875 270.03125 208.71875 254.148438 C 232.25 241.695312 255.046875 233.773438 261.472656 231.640625 C 261.875 231.507812 262.164062 231.183594 262.242188 230.769531 C 262.324219 230.355469 262.175781 229.941406 261.855469 229.667969 L 240.644531 211.601562 C 240.246094 211.261719 240.039062 210.769531 240.070312 210.246094 C 240.105469 209.726562 240.371094 209.261719 240.8125 208.976562 L 289.882812 176.828125 C 290.222656 176.605469 290.417969 176.230469 290.40625 175.824219 C 290.390625 175.417969 290.171875 175.058594 289.816406 174.855469 " fill-opacity="1" fill-rule="nonzero"/></g><g clip-path="url(#b9f0feeacf)"><path fill="#ffffff" d="M 80.171875 65.695312 C 80.664062 63.457031 81.234375 61.148438 81.878906 58.765625 C 82.429688 56.726562 83.03125 54.640625 83.6875 52.5 C 88.472656 36.9375 95.113281 22.03125 99.84375 12.265625 C 101.347656 9.164062 104.550781 7.15625 108.003906 7.15625 C 109.101562 7.15625 110.179688 7.359375 111.214844 7.75 L 132.480469 15.785156 C 138.257812 17.96875 144.320312 19.078125 150.496094 19.078125 C 156.671875 19.078125 162.730469 17.96875 168.507812 15.785156 L 189.777344 7.75 C 190.808594 7.359375 191.886719 7.160156 192.980469 7.160156 C 196.4375 7.160156 199.648438 9.171875 201.15625 12.289062 C 205.898438 22.074219 212.550781 37.015625 217.332031 52.601562 C 217.980469 54.707031 218.570312 56.761719 219.113281 58.765625 C 219.753906 61.148438 220.324219 63.457031 220.816406 65.695312 C 223.464844 77.671875 223.992188 87.570312 222.371094 95.222656 C 221.472656 99.464844 219.328125 103.304688 216.167969 106.328125 C 213.015625 109.351562 209.066406 111.347656 204.753906 112.109375 L 204.648438 112.128906 C 186.820312 115.25 168.597656 116.835938 150.496094 116.835938 C 132.390625 116.835938 114.171875 115.25 96.34375 112.128906 L 96.234375 112.109375 C 91.90625 111.347656 87.949219 109.332031 84.785156 106.285156 C 81.625 103.242188 79.480469 99.371094 78.59375 95.101562 C 77.007812 87.460938 77.539062 77.605469 80.171875 65.695312 Z M 284.253906 117.113281 C 277.347656 122.390625 266.886719 127.386719 253.992188 131.558594 C 247.761719 133.574219 241.050781 135.382812 233.957031 136.976562 C 231.179688 137.605469 228.34375 138.199219 225.453125 138.757812 C 224.074219 139.023438 222.675781 139.277344 221.273438 139.53125 C 220.988281 139.578125 220.707031 139.628906 220.421875 139.679688 C 216.816406 140.3125 213.132812 140.898438 209.378906 141.429688 C 192.71875 143.792969 174.679688 145.128906 156.015625 145.347656 C 154.179688 145.371094 152.34375 145.386719 150.496094 145.386719 C 148.648438 145.386719 146.808594 145.371094 144.976562 145.347656 C 126.308594 145.128906 108.273438 143.792969 91.613281 141.429688 C 87.859375 140.898438 84.175781 140.3125 80.570312 139.679688 C 80.285156 139.628906 80.003906 139.578125 79.71875 139.53125 C 78.3125 139.277344 76.917969 139.023438 75.539062 138.757812 C 72.644531 138.199219 69.8125 137.605469 67.035156 136.976562 C 59.9375 135.382812 53.230469 133.574219 46.996094 131.558594 C 34.105469 127.386719 23.640625 122.390625 16.738281 117.113281 C 10.382812 112.25 7.160156 107.386719 7.160156 102.65625 C 7.160156 97.921875 10.382812 93.058594 16.738281 88.199219 C 23.640625 82.917969 34.109375 77.921875 46.996094 73.753906 C 55.011719 71.160156 63.800781 68.90625 73.203125 67.015625 C 70.878906 78.667969 70.527344 88.527344 72.171875 96.433594 C 73.328125 102.003906 76.121094 107.042969 80.234375 111.007812 C 84.339844 114.964844 89.480469 117.578125 95.09375 118.566406 L 95.210938 118.585938 C 113.414062 121.777344 132.015625 123.394531 150.496094 123.394531 C 168.976562 123.394531 187.578125 121.777344 205.78125 118.585938 L 205.894531 118.570312 C 211.488281 117.582031 216.609375 114.988281 220.707031 111.066406 C 224.820312 107.125 227.613281 102.117188 228.789062 96.582031 C 230.464844 88.644531 230.128906 78.742188 227.789062 67.015625 C 237.191406 68.90625 245.980469 71.160156 253.992188 73.753906 C 266.886719 77.921875 277.347656 82.917969 284.253906 88.199219 C 290.605469 93.058594 293.828125 97.921875 293.828125 102.65625 C 293.828125 107.386719 290.605469 112.25 284.253906 117.113281 Z M 256.011719 67.515625 C 247.007812 64.601562 237.035156 62.097656 226.214844 60.035156 C 225.460938 57.019531 224.59375 53.902344 223.605469 50.679688 C 218.703125 34.691406 211.902344 19.421875 207.058594 9.429688 C 205.757812 6.742188 203.734375 4.5 201.203125 2.9375 C 198.722656 1.410156 195.882812 0.601562 192.980469 0.601562 C 191.09375 0.601562 189.234375 0.941406 187.457031 1.617188 L 166.191406 9.652344 C 161.15625 11.554688 155.875 12.519531 150.496094 12.519531 C 145.113281 12.519531 139.835938 11.554688 134.800781 9.652344 L 113.535156 1.617188 C 111.757812 0.941406 109.898438 0.601562 108.003906 0.601562 C 105.105469 0.601562 102.265625 1.40625 99.792969 2.929688 C 97.261719 4.488281 95.242188 6.726562 93.941406 9.40625 C 89.113281 19.378906 82.324219 34.617188 77.417969 50.574219 C 76.417969 53.835938 75.539062 56.988281 74.773438 60.035156 C 63.957031 62.097656 53.984375 64.601562 44.976562 67.515625 C 16.363281 76.769531 0.601562 89.25 0.601562 102.65625 C 0.601562 116.058594 16.363281 128.539062 44.976562 137.796875 C 51 139.746094 57.457031 141.507812 64.308594 143.082031 C 65.140625 143.269531 65.980469 143.457031 66.824219 143.644531 C 73.246094 145.054688 80.003906 146.296875 87.066406 147.371094 C 86.695312 148.496094 86.488281 149.6875 86.488281 150.933594 L 86.488281 156.488281 C 86.488281 162.441406 88.824219 168.054688 93.0625 172.292969 C 97.300781 176.53125 102.917969 178.867188 108.871094 178.867188 L 124.007812 178.867188 C 129.980469 178.867188 135.605469 176.523438 139.859375 172.277344 C 144.109375 168.027344 146.449219 162.398438 146.449219 156.429688 L 146.449219 151.910156 C 147.796875 151.921875 149.140625 151.945312 150.496094 151.945312 C 151.851562 151.945312 153.191406 151.921875 154.542969 151.910156 L 154.542969 156.429688 C 154.542969 162.398438 156.882812 168.027344 161.132812 172.277344 C 165.382812 176.523438 171.011719 178.867188 176.980469 178.867188 L 192.121094 178.867188 C 198.074219 178.867188 203.6875 176.53125 207.929688 172.292969 C 212.167969 168.054688 214.5 162.441406 214.5 156.488281 L 214.5 150.933594 C 214.5 149.6875 214.292969 148.496094 213.921875 147.371094 C 220.984375 146.296875 227.746094 145.054688 234.167969 143.644531 C 235.011719 143.457031 235.851562 143.269531 236.683594 143.082031 C 243.535156 141.507812 249.988281 139.746094 256.011719 137.796875 C 284.628906 128.539062 300.386719 116.058594 300.386719 102.65625 C 300.386719 89.25 284.628906 76.769531 256.011719 67.515625 " fill-opacity="1" fill-rule="nonzero"/></g></g></g></g></svg>